<?xml version="1.0" standalone="yes"?>
<svg xmlns="http://www.w3.org/2000/svg" width="781" height="365">
<path style="fill:#ffffff; stroke:none;" d="M0 0L0 348L1 348C1.30241 311.469 15.4071 271.212 29.5787 238C73.6909 134.62 163.31 51.4402 271 17.9745C300.614 8.77155 332.82 1 364 1L331 0L257 0L0 0z"/>
<path style="fill:#01a3e9; stroke:none;" d="M0 365L145 365C143.072 352.241 123.036 357 113 357L9 357C9 313.363 25.7404 269.353 43.1397 230C59.4762 193.05 82.8478 160.833 109.83 131C135.829 102.255 166.37 78.1563 200 58.8503C313.237 -6.15649 456.784 -9.15253 572 53.3087C608.287 72.9804 640.68 99.2924 669.039 129C694.375 155.541 715.823 185.151 732.247 218C753.079 259.663 772 309.825 772 357L330 357L225 357C213.273 357 194.912 353.054 188 365L781 365C781 318.936 766.385 271.955 748.281 230C730.225 188.158 703.182 149.182 671 117C626.724 72.7244 573.61 38.2251 514 18.3549C372.583 -28.784 209.673 12.6659 107.039 120C76.1895 152.263 51.037 189.312 32.6944 230C13.9627 271.551 0 319.161 0 365z"/>
<path style="fill:#ffffff; stroke:none;" d="M421 0L421 1C465.316 1 511.103 15.423 551 33.6913C641.536 75.146 716.221 150.058 753.4 243C766.212 275.03 779.711 313.089 780 348L781 348L781 0L421 0z"/>
<path style="fill:#018181; stroke:none;" d="M449 3L450 4L449 3M316 6L317 7L316 6M467 6L468 7L467 6M472 7L473 8L472 7z"/>
<path style="fill:#ffffff; stroke:none;" d="M9 357L137.985 357.059L146.498 363.972L156 365L156 364C149.492 359.302 145.924 350.462 154.105 345.008C163.679 338.627 182.579 347.623 190.034 340.397C201.019 329.748 195.767 308.244 187.319 298.09C181.931 291.614 170.019 290.347 165.603 299.418C161.511 307.825 165 325.635 165 335L33 335C33.2732 321.764 37.7628 308.694 41.1157 296C51.7874 255.6 70.0404 217.017 94.2909 183C120.209 146.644 152.78 114.168 190 89.3549C282.625 27.6051 405.748 11.1989 511 48.6921C585.393 75.1926 649.776 127.658 693.333 193C713.765 223.65 729.066 257.608 739.14 293C742.974 306.467 747.709 320.909 748 335L616 335C616 315.521 620.065 290.912 615.467 272C612.62 260.293 597.655 257.715 590.434 267.044C586.246 272.454 587 281.532 587 288C587 303.77 588.238 319.315 587 335L479 335C478.993 323.877 475.117 314.187 463 312L463 335L417 335L417 253L445 253L444 261L426 261L426 300C433.755 298.154 439.204 299.229 440 308C424.715 308 426 313.15 426 327L455 327L455 253C472.887 253.012 489.472 268.814 478.387 286.985C475.986 290.92 463.636 296.443 463.636 300.08C463.636 303.882 473.387 306.336 475.999 308.39C481.82 312.968 483.343 322.177 488.56 325.972C492.205 328.623 500.661 327 505 327C499.468 319.145 493.004 313.788 490.676 304C489.197 297.783 489.171 292.243 490.45 286C500.94 234.777 579.118 248.542 571.7 300C570.097 311.119 563.139 318.251 557 327L579 327C579 309.16 573.724 281.153 581.996 265C590.648 248.105 614.163 249.295 622.543 266C626.854 274.593 624.713 285.9 624.089 295C623.367 305.543 623.679 316.546 625 327L738 327C737.373 312.435 731.916 296.76 727.333 283C717.044 252.103 703.147 222.1 684.999 195C677.959 184.486 667.785 165.287 656.536 159.067C651.867 156.485 641.95 160.461 637 161.389C623.232 163.969 608.991 164.573 595 163.961C577.085 163.176 557.816 159.896 541 153.575C520.512 145.874 500.427 134.564 478 134.015C458.432 133.535 434.517 134.424 419.004 148.185C409.249 156.839 403.237 173.34 411.638 184.996C418.2 194.101 436.089 199.275 442.543 186.96C448.241 176.088 433.062 165.207 440.703 154.015C456.368 131.072 484.882 165.792 497 174.279C504.078 179.236 511.88 182.792 517 190C499.1 191.158 481.735 166.968 464.043 172.515C456.065 175.016 457.074 187.761 453.648 194C446.366 207.263 432.081 210.545 418 208.711C382.6 204.099 364.031 167.892 329 160.666C295.439 153.743 264.843 174.502 232 176.911C206.647 178.771 181.964 178.106 157 172.789C149.249 171.139 141.397 169.043 134 166.189C130.583 164.871 125.795 161.842 122.015 162.789C118.244 163.732 115.667 168.162 113.4 171C106.743 179.329 100.563 188.118 94.6674 197C76.9058 223.761 63.4717 253.585 53.3333 284C48.7641 297.708 43.3012 312.409 43 327L156 327L156 253C167.142 253.001 179.196 256.627 182.442 269C183.625 273.508 181.562 279.468 184.028 283.536C187.127 288.65 193.403 291.947 196.956 297C207.69 312.266 203.814 325.515 200 342L756 342C747.427 305.988 741.376 271.159 725.691 237C680.776 139.182 593.038 65.7978 490 36.4275C324.352 -10.7892 140.461 68.6742 62.7523 223C44.9679 258.319 26.0044 301.666 26 342L146 342C140.815 355.332 125.329 351 113 351L16 351C16.0049 306.904 35.3445 258.817 54.7531 220C73.8606 181.785 100.185 145.467 132 116.831C175.638 77.5533 225.537 46.7255 282 29.7199C446.139 -19.7156 626.871 52.4138 715 199C733.285 229.414 745.899 261.838 755.151 296C760.016 313.963 765 332.288 765 351L381 351L257 351L196 351.148L170 364L170 365L186 364.436L203 357.004L772 357C772 312.969 755.415 267.544 737.309 228C721.726 193.968 700.985 164.006 676.286 136C563.285 7.87335 375.139 -26.4681 222 46.3202C181.425 65.606 144.822 93.7256 113.961 126C85.1387 156.142 60.8778 189.883 43.6944 228C25.7351 267.838 9 312.737 9 357z"/>
<path style="fill:#018181; stroke:none;" d="M411 8L412 9L411 8z"/>
<path style="fill:#0157ab; stroke:none;" d="M297 10L298 11L297 10z"/>
<path style="fill:#018181; stroke:none;" d="M344 10L345 11L344 10z"/>
<path style="fill:#010101; stroke:none;" d="M434 10L435 11L434 10z"/>
<path style="fill:#018181; stroke:none;" d="M293 11L294 12L293 11M442 11L443 12L442 11M289 12L290 13L289 12z"/>
<path style="fill:#010101; stroke:none;" d="M285 13L286 14L285 13z"/>
<path style="fill:#018181; stroke:none;" d="M455 13L456 14L455 13z"/>
<path style="fill:#010101; stroke:none;" d="M497 13L498 14L497 13z"/>
<path style="fill:#018181; stroke:none;" d="M318 14L319 15L318 14M371 14L372 15L371 14z"/>
<path style="fill:#01a3e9; stroke:none;" d="M16 351L143 351L146 342L26 342C26.0269 301.445 45.5261 257.292 63.7415 222C140.557 73.173 317.128 -8.88611 480 33.8843C588.45 62.3635 679.739 137.732 726.691 240C741.859 273.037 747.696 307.138 756 342L200 342C205.377 325.471 206.983 310.017 196.211 295C192.908 290.394 185.76 287.266 183.452 282.331C181.518 278.196 183.652 272.464 182.362 268C178.741 255.474 167.267 253 156 253L156 327L43 327C43.2943 312.739 48.8714 298.386 53.3333 285C63.4963 254.511 76.8603 224.843 94.6674 198C100.651 188.98 111.316 166.882 122.004 163.356C125.427 162.227 129.817 164.912 133 165.997C141.571 168.917 150.169 171.355 159 173.35C183.342 178.848 208.275 178.733 233 176.911C265.998 174.48 296.283 153.715 330 161.015C363.886 168.351 381.715 203.164 416 208.561C429.494 210.685 445.52 208.898 453.045 195.996C457.022 189.177 455.85 174.905 465.015 172.438C471.305 170.744 478.602 175.061 484 177.753C494.633 183.056 504.83 189.966 517 190C513.302 182.24 503.765 178.568 497 173.791C485.174 165.441 457.918 132.238 441.43 152.109C431.487 164.092 450.079 177.818 440.606 188.895C430.728 200.444 413.33 190.853 408.967 179C404.144 165.898 413.484 152.106 424 145.105C443.525 132.106 471.815 131.462 494 136.425C511.471 140.333 527.152 149.165 544 154.921C559.927 160.362 577.28 162.766 594 163.91C607.532 164.837 621.659 164.067 635 161.75C640.321 160.826 650.615 156.806 655.7 159.198C659.01 160.754 661.577 165.318 663.95 168C671.68 176.739 678.536 186.301 685 196C709.578 232.881 734.419 282.005 738 327L625 327C624.138 316.075 623.337 304.993 624.089 294C624.722 284.77 626.615 273.764 622.427 265C614.833 249.104 590.034 248.163 581.999 264.001C573.649 280.46 579 308.886 579 327L557 327C562.822 321.129 567.641 314.967 570.251 307C584.98 262.039 522.21 231.717 496.105 271C492.683 276.149 490.86 281.924 490.001 288C489.135 294.117 489.277 300.012 491.043 306C493.611 314.708 498.703 320.699 505 327C500.612 327 493.127 328.427 489.302 325.972C486.014 323.861 485.108 318.181 483.034 315C478.496 308.04 471.21 303.721 463 303C464.257 295.275 474.794 293.746 478.772 286.999C489.828 268.251 472.989 253.002 455 253L455 327L426 327L426 308L440 308C439.577 298.924 433.946 298.108 426 300L426 261L444 261L445 253L417 253L417 335L463 335L463 312C474.323 315.332 478.969 323.738 479 335L587 335C588.238 319.315 586.999 303.771 587 288C587 281.579 586.459 272.523 590.653 267.185C597.957 257.889 611.728 260.943 615.196 272C617.197 278.378 616 286.382 616 293L616 335L748 335C747.88 320.49 742.986 305.831 739 292C729.953 260.608 716.988 231.036 700.2 203C680.078 169.398 654.303 140.641 625 114.845C534.69 35.3413 399.681 8.38708 285 44.0255C208.243 67.8786 140.943 116.56 94.2909 182C70.9972 214.675 53.5813 251.453 42.5787 290C38.4407 304.497 33.1259 319.791 33 335L165 335C165 325.377 161.804 308.989 165.603 300.144C169.014 292.204 180.591 291.649 185.816 297.093C195.316 306.993 201.557 329.643 189.363 340.397C182.427 346.513 164.926 340.155 156.015 343.664C148.766 346.518 146.627 356.17 152.228 361.772C165.992 375.535 183.981 354.272 196 351.317C205.914 348.88 218.793 351 229 351L300 351L765 351C765 301.463 742.636 246.327 718.421 204C618.173 28.7654 390.465 -36.0469 213 58.2199C181.723 74.8338 152.069 95.9312 127 121C98.0356 149.964 73.12 182.266 54.7531 219C35.1723 258.162 16 306.565 16 351z"/>
<path style="fill:#010101; stroke:none;" d="M407 14L408 15L407 14z"/>
<path style="fill:#0157ab; stroke:none;" d="M278 15L279 16L278 15z"/>
<path style="fill:#018181; stroke:none;" d="M422 15L423 16L422 15z"/>
<path style="fill:#0157ab; stroke:none;" d="M507 16L508 17L507 16z"/>
<path style="fill:#010101; stroke:none;" d="M441 17L442 18L441 17M300 18L301 19L300 18M448 18L449 19L448 18M265 19L266 20L265 19z"/>
<path style="fill:#018181; stroke:none;" d="M296 19L297 20L296 19M454 19L455 20L454 19M262 20L263 21L262 20M292 20L293 21L292 20z"/>
<path style="fill:#0157ab; stroke:none;" d="M319 20L320 21L319 20z"/>
<path style="fill:#018181; stroke:none;" d="M519 20L520 21L519 20M314 21L315 22L314 21z"/>
<path style="fill:#010101; stroke:none;" d="M465 21L466 22L465 21M285 22L286 23L285 22M309 22L310 23L309 22z"/>
<path style="fill:#018181; stroke:none;" d="M495 22L496 23L495 22M251 24L252 25L251 24M502 24L503 25L502 24M275 25L276 26L275 25z"/>
<path style="fill:#010101; stroke:none;" d="M344 25L345 26L344 25z"/>
<path style="fill:#018181; stroke:none;" d="M436 25L437 26L436 25z"/>
<path style="fill:#010101; stroke:none;" d="M272 26L273 27L272 26M337 26L338 27L337 26M443 26L444 27L443 26M269 27L270 28L269 27z"/>
<path style="fill:#018181; stroke:none;" d="M289 27L290 28L289 27z"/>
<path style="fill:#010101; stroke:none;" d="M266 28L267 29L266 28z"/>
<path style="fill:#018181; stroke:none;" d="M263 29L264 30L263 29z"/>
<path style="fill:#0157ab; stroke:none;" d="M282 29L283 30L282 29z"/>
<path style="fill:#010101; stroke:none;" d="M373 29L374 30L373 29M406 29L407 30L406 29z"/>
<path style="fill:#018181; stroke:none;" d="M420 30L421 31L420 30M544 30L545 31L544 30z"/>
<path style="fill:#010101; stroke:none;" d="M310 31L311 32L310 31z"/>
<path style="fill:#0157ab; stroke:none;" d="M474 32L475 33L474 32z"/>
<path style="fill:#010101; stroke:none;" d="M446 33L447 34L446 33z"/>
<path style="fill:#0157ab; stroke:none;" d="M478 33L479 34L478 33z"/>
<path style="fill:#018181; stroke:none;" d="M227 34L228 35L227 34z"/>
<path style="fill:#0157ab; stroke:none;" d="M482 34L483 35L482 34z"/>
<path style="fill:#018181; stroke:none;" d="M555 35L556 36L555 35z"/>
<path style="fill:#010101; stroke:none;" d="M290 36L291 37L290 36z"/>
<path style="fill:#018181; stroke:none;" d="M316 36L317 37L316 36z"/>
<path style="fill:#0157ab; stroke:none;" d="M464 36L465 37L464 36z"/>
<path style="fill:#010101; stroke:none;" d="M242 37L243 38L242 37z"/>
<path style="fill:#018181; stroke:none;" d="M311 37L312 38L311 37M283 38L284 39L283 38z"/>
<path style="fill:#0157ab; stroke:none;" d="M474 38L475 39L474 38z"/>
<path style="fill:#010101; stroke:none;" d="M496 38L497 39L496 38z"/>
<path style="fill:#018181; stroke:none;" d="M541 38L542 39L541 38M237 39L238 40L237 39M253 39L254 40L253 39M483 40L484 41L483 40z"/>
<path style="fill:#010101; stroke:none;" d="M529 40L530 41L529 40z"/>
<path style="fill:#018181; stroke:none;" d="M487 41L488 42L487 41z"/>
<path style="fill:#010101; stroke:none;" d="M290 42L291 43L290 42z"/>
<path style="fill:#0157ab; stroke:none;" d="M243 43L244 44L243 43z"/>
<path style="fill:#018181; stroke:none;" d="M226 44L227 45L226 44M498 44L499 45L498 44z"/>
<path style="fill:#0157ab; stroke:none;" d="M205 45L206 46L205 45z"/>
<path style="fill:#018181; stroke:none;" d="M280 45L281 46L280 45M236 46L237 47L236 46M277 46L278 47L277 46z"/>
<path style="fill:#0157ab; stroke:none;" d="M543 46L544 47L543 46z"/>
<path style="fill:#010101; stroke:none;" d="M274 47L275 48L274 47z"/>
<path style="fill:#018181; stroke:none;" d="M523 47L524 48L523 47z"/>
<path style="fill:#010101; stroke:none;" d="M254 48L255 49L254 48z"/>
<path style="fill:#018181; stroke:none;" d="M216 49L217 50L216 49z"/>
<path style="fill:#010101; stroke:none;" d="M513 49L514 50L513 49z"/>
<path style="fill:#018181; stroke:none;" d="M196 50L197 51L196 50z"/>
<path style="fill:#010101; stroke:none;" d="M249 50L250 51L249 50z"/>
<path style="fill:#018181; stroke:none;" d="M585 50L586 51L585 50M518 51L519 52L518 51M538 53L539 54L538 53M574 54L575 55L574 54z"/>
<path style="fill:#010101; stroke:none;" d="M205 55L206 56L205 55z"/>
<path style="fill:#018181; stroke:none;" d="M198 59L199 60L198 59M228 60L229 61L228 60M571 60L572 61L571 60M240 61L241 62L240 61z"/>
<path style="fill:#010101; stroke:none;" d="M539 61L540 62L539 61z"/>
<path style="fill:#018181; stroke:none;" d="M193 62L194 63L193 62z"/>
<path style="fill:#010101; stroke:none;" d="M205 62L206 63L205 62z"/>
<path style="fill:#0157ab; stroke:none;" d="M224 62L225 63L224 62z"/>
<path style="fill:#018181; stroke:none;" d="M556 62L557 63L556 62M222 63L223 64L222 63z"/>
<path style="fill:#010101; stroke:none;" d="M589 63L590 64L589 63z"/>
<path style="fill:#018181; stroke:none;" d="M605 63L606 64L605 63z"/>
<path style="fill:#010101; stroke:none;" d="M220 64L221 65L220 64z"/>
<path style="fill:#018181; stroke:none;" d="M578 64L579 65L578 64z"/>
<path style="fill:#010101; stroke:none;" d="M218 65L219 66L218 65z"/>
<path style="fill:#0157ab; stroke:none;" d="M548 65L549 66L548 65z"/>
<path style="fill:#010101; stroke:none;" d="M198 66L199 67L198 66z"/>
<path style="fill:#018181; stroke:none;" d="M216 66L217 67L216 66z"/>
<path style="fill:#010101; stroke:none;" d="M185 67L186 68L185 67z"/>
<path style="fill:#018181; stroke:none;" d="M193 69L194 70L193 69z"/>
<path style="fill:#010101; stroke:none;" d="M569 69L570 70L569 69z"/>
<path style="fill:#018181; stroke:none;" d="M588 70L589 71L588 70z"/>
<path style="fill:#010101; stroke:none;" d="M207 71L208 72L207 71z"/>
<path style="fill:#018181; stroke:none;" d="M617 71L618 72L617 71M160 73L161 74L160 73z"/>
<path style="fill:#010101; stroke:none;" d="M185 74L186 75L185 74z"/>
<path style="fill:#018181; stroke:none;" d="M578 74L579 75L578 74z"/>
<path style="fill:#010101; stroke:none;" d="M596 75L597 76L596 75M182 76L183 77L182 76M624 76L625 77L624 76z"/>
<path style="fill:#018181; stroke:none;" d="M599 77L600 78L599 77M610 77L611 78L610 77M585 78L586 79L585 78z"/>
<path style="fill:#0157ab; stroke:none;" d="M167 79L168 80L167 79z"/>
<path style="fill:#010101; stroke:none;" d="M602 79L603 80L602 79M628 79L629 80L628 79z"/>
<path style="fill:#018181; stroke:none;" d="M148 82L149 83L148 82z"/>
<path style="fill:#010101; stroke:none;" d="M200 82L201 83L200 82z"/>
<path style="fill:#018181; stroke:none;" d="M633 83L634 84L633 83M160 84L161 85L160 84z"/>
<path style="fill:#010101; stroke:none;" d="M583 84L584 85L583 84M144 85L145 86L144 85z"/>
<path style="fill:#018181; stroke:none;" d="M612 86L613 87L612 86z"/>
<path style="fill:#0157ab; stroke:none;" d="M156 87L157 88L156 87z"/>
<path style="fill:#010101; stroke:none;" d="M192 87L193 88L192 87z"/>
<path style="fill:#018181; stroke:none;" d="M638 87L639 88L638 87M189 89L190 90L189 89z"/>
<path style="fill:#0157ab; stroke:none;" d="M616 89L617 90L616 89z"/>
<path style="fill:#018181; stroke:none;" d="M152 90L153 91L152 90M186 91L187 92L186 91M643 91L644 92L643 91z"/>
<path style="fill:#0157ab; stroke:none;" d="M606 92L607 93L606 92z"/>
<path style="fill:#018181; stroke:none;" d="M620 92L621 93L620 92M173 93L174 94L173 93z"/>
<path style="fill:#010101; stroke:none;" d="M598 94L599 95L598 94z"/>
<path style="fill:#018181; stroke:none;" d="M132 95L133 96L132 95M156 95L157 96L156 95z"/>
<path style="fill:#010101; stroke:none;" d="M624 95L625 96L624 95M169 96L170 97L169 96z"/>
<path style="fill:#0157ab; stroke:none;" d="M650 97L651 98L650 97z"/>
<path style="fill:#018181; stroke:none;" d="M141 99L142 100L141 99M151 99L152 100L151 99z"/>
<path style="fill:#0157ab; stroke:none;" d="M165 99L166 100L165 99M605 99L606 100L605 99z"/>
<path style="fill:#018181; stroke:none;" d="M629 99L630 100L629 99z"/>
<path style="fill:#010101; stroke:none;" d="M618 101L619 102L618 101z"/>
<path style="fill:#018181; stroke:none;" d="M641 101L642 102L641 101M161 102L162 103L161 102z"/>
<path style="fill:#0157ab; stroke:none;" d="M145 104L146 105L145 104z"/>
<path style="fill:#018181; stroke:none;" d="M635 104L636 105L635 104z"/>
<path style="fill:#010101; stroke:none;" d="M120 106L121 107L120 106z"/>
<path style="fill:#0157ab; stroke:none;" d="M133 106L134 107L133 106z"/>
<path style="fill:#018181; stroke:none;" d="M156 106L157 107L156 106z"/>
<path style="fill:#010101; stroke:none;" d="M119 107L120 108L119 107z"/>
<path style="fill:#018181; stroke:none;" d="M132 107L133 108L132 107z"/>
<path style="fill:#0157ab; stroke:none;" d="M649 108L650 109L649 108z"/>
<path style="fill:#018181; stroke:none;" d="M162 109L163 110L162 109z"/>
<path style="fill:#0157ab; stroke:none;" d="M618 109L619 110L618 109z"/>
<path style="fill:#018181; stroke:none;" d="M628 109L629 110L628 109M641 109L642 110L641 109M148 113L149 114L148 113M155 115L156 116L155 115z"/>
<path style="fill:#010101; stroke:none;" d="M625 115L626 116L625 115z"/>
<path style="fill:#018181; stroke:none;" d="M154 116L155 117L154 116M626 116L627 117L626 116z"/>
<path style="fill:#010101; stroke:none;" d="M128 119L129 120L128 119z"/>
<path style="fill:#018181; stroke:none;" d="M127 120L128 121L127 120M126 121L127 122L126 121M117 122L118 123L117 122z"/>
<path style="fill:#010101; stroke:none;" d="M125 122L126 123L125 122z"/>
<path style="fill:#018181; stroke:none;" d="M138 122L139 123L138 122M116 123L117 124L116 123z"/>
<path style="fill:#010101; stroke:none;" d="M124 123L125 124L124 123z"/>
<path style="fill:#0157ab; stroke:none;" d="M137 123L138 124L137 123z"/>
<path style="fill:#018181; stroke:none;" d="M664 123L665 124L664 123z"/>
<path style="fill:#0157ab; stroke:none;" d="M115 124L116 125L115 124z"/>
<path style="fill:#010101; stroke:none;" d="M123 124L124 125L123 124M136 124L137 125L136 124z"/>
<path style="fill:#018181; stroke:none;" d="M635 124L636 125L635 124M102 125L103 126L102 125z"/>
<path style="fill:#0157ab; stroke:none;" d="M114 125L115 126L114 125z"/>
<path style="fill:#010101; stroke:none;" d="M122 125L123 126L122 125z"/>
<path style="fill:#018181; stroke:none;" d="M636 125L637 126L636 125M101 126L102 127L101 126z"/>
<path style="fill:#0157ab; stroke:none;" d="M113 126L114 127L113 126z"/>
<path style="fill:#010101; stroke:none;" d="M100 127L101 128L100 127z"/>
<path style="fill:#018181; stroke:none;" d="M112 127L113 128L112 127z"/>
<path style="fill:#010101; stroke:none;" d="M142 127L143 128L142 127z"/>
<path style="fill:#018181; stroke:none;" d="M647 127L648 128L647 127z"/>
<path style="fill:#0157ab; stroke:none;" d="M141 128L142 129L141 128z"/>
<path style="fill:#018181; stroke:none;" d="M648 128L649 129L648 128M683 130L684 131L683 130z"/>
<path style="fill:#010101; stroke:none;" d="M449 135L450 136L449 135M675 135L676 136L675 135z"/>
<path style="fill:#0157ab; stroke:none;" d="M444 136L445 137L444 136z"/>
<path style="fill:#018181; stroke:none;" d="M676 136L677 137L676 136z"/>
<path style="fill:#010101; stroke:none;" d="M91 137L92 138L91 137M437 138L438 139L437 138z"/>
<path style="fill:#018181; stroke:none;" d="M101 139L102 140L101 139z"/>
<path style="fill:#010101; stroke:none;" d="M121 139L122 140L121 139M505 139L506 140L505 139z"/>
<path style="fill:#018181; stroke:none;" d="M108 140L109 141L108 140z"/>
<path style="fill:#0157ab; stroke:none;" d="M508 140L509 141L508 140z"/>
<path style="fill:#018181; stroke:none;" d="M672 140L673 141L672 140M86 143L87 144L86 143M694 143L695 144L694 143z"/>
<path style="fill:#010101; stroke:none;" d="M518 144L519 145L518 144z"/>
<path style="fill:#018181; stroke:none;" d="M95 146L96 147L95 146M657 146L658 147L657 146M658 147L659 148L658 147M678 147L679 148L678 147M82 148L83 149L82 148z"/>
<path style="fill:#010101; stroke:none;" d="M101 148L102 149L101 148z"/>
<path style="fill:#018181; stroke:none;" d="M121 148L122 149L121 148M462 148L463 149L462 148z"/>
<path style="fill:#010101; stroke:none;" d="M667 148L668 149L667 148z"/>
<path style="fill:#018181; stroke:none;" d="M698 148L699 149L698 148M112 149L113 150L112 149M120 149L121 150L120 149M668 149L669 150L668 149M689 151L690 152L689 151M90 152L91 153L90 152M78 153L79 154L78 153z"/>
<path style="fill:#010101; stroke:none;" d="M97 153L98 154L97 153z"/>
<path style="fill:#018181; stroke:none;" d="M540 153L541 154L540 153M107 155L108 156L107 155M666 156L667 157L666 156M674 156L675 157L674 156M75 157L76 158L75 157z"/>
<path style="fill:#010101; stroke:none;" d="M113 157L114 158L113 157M411 157L412 158L411 157z"/>
<path style="fill:#018181; stroke:none;" d="M478 157L479 158L478 157M553 157L554 158L553 157z"/>
<path style="fill:#010101; stroke:none;" d="M705 157L706 158L705 157M438 158L439 159L438 158z"/>
<path style="fill:#018181; stroke:none;" d="M479 158L480 159L479 158z"/>
<path style="fill:#010101; stroke:none;" d="M309 159L310 160L309 159z"/>
<path style="fill:#018181; stroke:none;" d="M480 159L481 160L480 159z"/>
<path style="fill:#010101; stroke:none;" d="M103 160L104 161L103 160z"/>
<path style="fill:#018181; stroke:none;" d="M300 160L301 161L300 160z"/>
<path style="fill:#0157ab; stroke:none;" d="M481 160L482 161L481 160z"/>
<path style="fill:#018181; stroke:none;" d="M641 160L642 161L641 160z"/>
<path style="fill:#0157ab; stroke:none;" d="M696 160L697 161L696 160z"/>
<path style="fill:#018181; stroke:none;" d="M72 161L73 162L72 161M332 161L333 162L332 161z"/>
<path style="fill:#0157ab; stroke:none;" d="M482 161L483 162L482 161z"/>
<path style="fill:#010101; stroke:none;" d="M636 161L637 162L636 161M678 161L679 162L678 161M708 161L709 162L708 161M90 162L91 163L90 162z"/>
<path style="fill:#018181; stroke:none;" d="M483 162L484 163L483 162z"/>
<path style="fill:#010101; stroke:none;" d="M630 162L631 163L630 162z"/>
<path style="fill:#018181; stroke:none;" d="M671 162L672 163L671 162z"/>
<path style="fill:#0157ab; stroke:none;" d="M690 162L691 163L690 162M484 163L485 164L484 163z"/>
<path style="fill:#018181; stroke:none;" d="M590 163L591 164L590 163M620 163L621 164L620 163z"/>
<path style="fill:#010101; stroke:none;" d="M699 164L700 165L699 164z"/>
<path style="fill:#018181; stroke:none;" d="M99 165L100 166L99 165z"/>
<path style="fill:#010101; stroke:none;" d="M344 165L345 166L344 165M87 166L88 167L87 166z"/>
<path style="fill:#018181; stroke:none;" d="M134 166L135 167L134 166z"/>
<path style="fill:#010101; stroke:none;" d="M276 166L277 167L276 166z"/>
<path style="fill:#018181; stroke:none;" d="M105 167L106 168L105 167z"/>
<path style="fill:#010101; stroke:none;" d="M116 167L117 168L116 167z"/>
<path style="fill:#018181; stroke:none;" d="M137 167L138 168L137 167z"/>
<path style="fill:#010101; stroke:none;" d="M675 167L676 168L675 167M67 168L68 169L67 168z"/>
<path style="fill:#018181; stroke:none;" d="M78 168L79 169L78 168M140 168L141 169L140 168M439 168L440 169L439 168M702 168L703 169L702 168M713 168L714 169L713 168z"/>
<path style="fill:#0157ab; stroke:none;" d="M96 169L97 170L96 169z"/>
<path style="fill:#018181; stroke:none;" d="M266 169L267 170L266 169z"/>
<path style="fill:#010101; stroke:none;" d="M84 170L85 171L84 170z"/>
<path style="fill:#018181; stroke:none;" d="M147 170L148 171L147 170M666 170L667 171L666 170M685 170L686 171L685 170z"/>
<path style="fill:#0157ab; stroke:none;" d="M696 170L697 171L696 170M65 171L66 172L65 171z"/>
<path style="fill:#010101; stroke:none;" d="M407 171L408 172L407 171z"/>
<path style="fill:#018181; stroke:none;" d="M493 171L494 172L493 171M715 171L716 172L715 171z"/>
<path style="fill:#010101; stroke:none;" d="M112 172L113 173L112 172z"/>
<path style="fill:#018181; stroke:none;" d="M155 172L156 173L155 172M407 172L408 173L407 172M471 172L472 173L471 172M93 173L94 174L93 173M441 173L442 174L441 173M461 173L462 174L461 173M63 174L64 175L63 174M477 174L478 175L477 174M497 174L498 175L497 174M73 175L74 176L73 175M242 175L243 176L242 175M681 175L682 176L681 175M707 175L708 176L707 175z"/>
<path style="fill:#0157ab; stroke:none;" d="M363 176L364 177L363 176M61 177L62 178L61 177z"/>
<path style="fill:#018181; stroke:none;" d="M690 177L691 178L690 177M701 177L702 178L701 177M719 177L720 178L719 177z"/>
<path style="fill:#010101; stroke:none;" d="M71 178L72 179L71 178z"/>
<path style="fill:#018181; stroke:none;" d="M505 179L506 180L505 179z"/>
<path style="fill:#010101; stroke:none;" d="M684 179L685 180L684 179z"/>
<path style="fill:#0157ab; stroke:none;" d="M77 180L78 181L77 180z"/>
<path style="fill:#010101; stroke:none;" d="M106 180L107 181L106 180M721 180L722 181L721 180M69 181L70 182L69 181z"/>
<path style="fill:#018181; stroke:none;" d="M369 181L370 182L369 181z"/>
<path style="fill:#0157ab; stroke:none;" d="M457 181L458 182L457 181z"/>
<path style="fill:#018181; stroke:none;" d="M508 181L509 182L508 181z"/>
<path style="fill:#010101; stroke:none;" d="M511 183L512 184L511 183z"/>
<path style="fill:#018181; stroke:none;" d="M67 184L68 185L67 184M85 184L86 185L85 184M73 186L74 187L73 186M456 186L457 187L456 186M707 186L708 187L707 186z"/>
<path style="fill:#010101; stroke:none;" d="M83 187L84 188L83 187M101 187L102 188L101 187M679 187L680 188L679 187z"/>
<path style="fill:#018181; stroke:none;" d="M697 187L698 188L697 187z"/>
<path style="fill:#010101; stroke:none;" d="M715 187L716 188L715 187z"/>
<path style="fill:#0157ab; stroke:none;" d="M377 188L378 189L377 188z"/>
<path style="fill:#010101; stroke:none;" d="M71 189L72 190L71 189z"/>
<path style="fill:#018181; stroke:none;" d="M455 190L456 191L455 190z"/>
<path style="fill:#010101; stroke:none;" d="M514 190L515 191L514 190z"/>
<path style="fill:#0157ab; stroke:none;" d="M438 191L439 192L438 191z"/>
<path style="fill:#010101; stroke:none;" d="M59 197L60 198L59 197M721 197L722 198L721 197z"/>
<path style="fill:#018181; stroke:none;" d="M83 198L84 199L83 198M704 198L705 199L704 198z"/>
<path style="fill:#0157ab; stroke:none;" d="M75 199L76 200L75 199z"/>
<path style="fill:#010101; stroke:none;" d="M698 200L699 201L698 200M395 201L396 202L395 201M46 202L47 203L46 202M397 202L398 203L397 202z"/>
<path style="fill:#0157ab; stroke:none;" d="M447 202L448 203L447 202z"/>
<path style="fill:#010101; stroke:none;" d="M734 202L735 203L734 202z"/>
<path style="fill:#018181; stroke:none;" d="M45 204L46 205L45 204M55 204L56 205L55 204z"/>
<path style="fill:#010101; stroke:none;" d="M62 204L63 205L62 204z"/>
<path style="fill:#018181; stroke:none;" d="M72 204L73 205L72 204M718 204L719 205L718 204M725 204L726 205L725 204M701 205L702 206L701 205z"/>
<path style="fill:#010101; stroke:none;" d="M726 206L727 207L726 206z"/>
<path style="fill:#0157ab; stroke:none;" d="M77 208L78 209L77 208z"/>
<path style="fill:#010101; stroke:none;" d="M710 208L711 209L710 208z"/>
<path style="fill:#018181; stroke:none;" d="M694 210L695 211L694 210M705 212L706 213L705 212z"/>
<path style="fill:#010101; stroke:none;" d="M723 213L724 214L723 213z"/>
<path style="fill:#018181; stroke:none;" d="M714 215L715 216L714 215z"/>
<path style="fill:#0157ab; stroke:none;" d="M72 217L73 218L72 217z"/>
<path style="fill:#010101; stroke:none;" d="M699 219L700 220L699 219M80 221L81 222L80 221z"/>
<path style="fill:#018181; stroke:none;" d="M710 221L711 222L710 221M44 226L45 227L44 226z"/>
<path style="fill:#010101; stroke:none;" d="M736 226L737 227L736 226z"/>
<path style="fill:#0157ab; stroke:none;" d="M60 227L61 228L60 227z"/>
<path style="fill:#010101; stroke:none;" d="M33 228L34 229L33 228z"/>
<path style="fill:#018181; stroke:none;" d="M737 228L738 229L737 228z"/>
<path style="fill:#010101; stroke:none;" d="M59 229L60 230L59 229z"/>
<path style="fill:#0157ab; stroke:none;" d="M732 231L733 232L732 231M48 232L49 233L48 232z"/>
<path style="fill:#010101; stroke:none;" d="M40 235L41 236L40 235z"/>
<path style="fill:#018181; stroke:none;" d="M750 235L751 236L750 235z"/>
<path style="fill:#010101; stroke:none;" d="M55 237L56 238L55 237z"/>
<path style="fill:#018181; stroke:none;" d="M718 237L719 238L718 237z"/>
<path style="fill:#0157ab; stroke:none;" d="M741 237L742 238L741 237z"/>
<path style="fill:#018181; stroke:none;" d="M54 239L55 240L54 239M719 239L720 240L719 239M44 241L45 242L44 241M727 241L728 242L727 241M27 242L28 243L27 242z"/>
<path style="fill:#010101; stroke:none;" d="M37 242L38 243L37 242z"/>
<path style="fill:#0157ab; stroke:none;" d="M59 243L60 244L59 243z"/>
<path style="fill:#018181; stroke:none;" d="M51 246L52 247L51 246M25 247L26 248L25 247z"/>
<path style="fill:#0157ab; stroke:none;" d="M67 247L68 248L67 247M713 247L714 248L713 247M723 248L724 249L723 248z"/>
<path style="fill:#010101; stroke:none;" d="M49 251L50 252L49 251z"/>
<path style="fill:#018181; stroke:none;" d="M211 252L212 253L211 252z"/>
<path style="fill:#01a3e9; stroke:none;" d="M246 327L220 327L220 253C217.743 252.83 213.739 251.63 212.028 253.643C209.308 256.842 211 266.022 211 270L211 314C211 318.46 208.645 332.945 213.318 335.254C219.261 338.19 234.105 335 241 335C259.744 335 288.382 340.297 295.072 316C297.238 308.134 296.999 298.147 297 290C297.001 281 297.043 272 296.999 263C296.984 259.926 297.427 255.308 294.487 253.323C285.763 247.431 288 268.234 288 272C288 288.324 293.681 331.354 265 326.667C240.427 322.653 247 288.654 247 271C247 266.963 248.941 255.769 245.397 253.032C236.474 246.139 238 266.635 238 270C238 288.993 234.486 310.781 246 327z"/>
<path style="fill:#018181; stroke:none;" d="M215 252L216 253L215 252M239 252L240 253L239 252z"/>
<path style="fill:#0157ab; stroke:none;" d="M288 252L289 253L288 252z"/>
<path style="fill:#018181; stroke:none;" d="M293.667 252.333L294.333 252.667L293.667 252.333z"/>
<path style="fill:#0157ab; stroke:none;" d="M295 252L296 253L295 252z"/>
<path style="fill:#01a3e9; stroke:none;" d="M306 252L305 335L361 335.285L377.972 333.436L379 309L400 309L400 335L408 335L408 253L400 253L400 300L379 300L379 253L370 253L370 327L314 327L314 309L327 308L327 300L314 300L314 261L333 261C332.684 247.981 315.472 252 306 252z"/>
<path style="fill:#018181; stroke:none;" d="M328 252L328 253L332 253L328 252M422 252L423 253L422 252M603 252L604 253L603 252M741 252L742 253L741 252M521 253L522 254L521 253z"/>
<path style="fill:#0157ab; stroke:none;" d="M608 253L609 254L608 253z"/>
<path style="fill:#018181; stroke:none;" d="M64 254L65 255L64 254z"/>
<path style="fill:#0157ab; stroke:none;" d="M332 254L333 255L332 254z"/>
<path style="fill:#018181; stroke:none;" d="M716 254L717 255L716 254z"/>
<path style="fill:#010101; stroke:none;" d="M47 256L48 257L47 256M444 256L445 257L444 256z"/>
<path style="fill:#018181; stroke:none;" d="M588 256L589 257L588 256z"/>
<path style="fill:#010101; stroke:none;" d="M31 257L32 258L31 257M473 257L474 258L473 257z"/>
<path style="fill:#018181; stroke:none;" d="M759 258L760 259L759 258M62 259L63 260L62 259z"/>
<path style="fill:#0157ab; stroke:none;" d="M507 259L508 260L507 259z"/>
<path style="fill:#018181; stroke:none;" d="M52 260L53 261L52 260z"/>
<path style="fill:#010101; stroke:none;" d="M728 260L729 261L728 260z"/>
<path style="fill:#018181; stroke:none;" d="M744 260L745 261L744 260z"/>
<path style="fill:#010101; stroke:none;" d="M36 261L37 262L36 261z"/>
<path style="fill:#018181; stroke:none;" d="M45 261L46 262L45 261M477 261L478 262L477 261M526 261L527 262L526 261z"/>
<path style="fill:#ffffff; stroke:none;" d="M527 261.439C484.749 268.09 493.001 332.754 535 326.7C577.194 320.617 568.782 254.862 527 261.439M165 262L165 289C177.276 284.139 177.276 266.861 165 262z"/>
<path style="fill:#0157ab; stroke:none;" d="M166 262L167 263L166 262z"/>
<path style="fill:#ffffff; stroke:none;" d="M463 262L463 289C475.721 284.636 475.701 266.33 463 262z"/>
<path style="fill:#010101; stroke:none;" d="M503 262L504 263L503 262z"/>
<path style="fill:#0157ab; stroke:none;" d="M502 263L503 264L502 263z"/>
<path style="fill:#010101; stroke:none;" d="M559 263L560 264L559 263z"/>
<path style="fill:#018181; stroke:none;" d="M35 264L36 265L35 264M60 264L61 265L60 264M501 264L502 265L501 264M560 264L561 265L560 264M28 265L29 266L28 265z"/>
<path style="fill:#0157ab; stroke:none;" d="M181 265L182 266L181 265z"/>
<path style="fill:#010101; stroke:none;" d="M500 265L501 266L500 265z"/>
<path style="fill:#018181; stroke:none;" d="M547 265L548 266L547 265z"/>
<path style="fill:#010101; stroke:none;" d="M561 265L562 266L561 265z"/>
<path style="fill:#0157ab; stroke:none;" d="M591 265L592 266L591 265z"/>
<path style="fill:#018181; stroke:none;" d="M752 265L753 266L752 265M590 266L591 267L590 266M737 266L738 267L737 266M172 267L173 268L172 267z"/>
<path style="fill:#010101; stroke:none;" d="M511 267L512 268L511 267z"/>
<path style="fill:#018181; stroke:none;" d="M550 267L551 268L550 267z"/>
<path style="fill:#010101; stroke:none;" d="M623 267L624 268L623 267M27 268L28 269L27 268z"/>
<path style="fill:#018181; stroke:none;" d="M731 268L732 269L731 268z"/>
<path style="fill:#010101; stroke:none;" d="M753 268L754 269L753 268z"/>
<path style="fill:#018181; stroke:none;" d="M722 269L723 270L722 269z"/>
<path style="fill:#0157ab; stroke:none;" d="M481 271L482 272L481 271M579 271L580 272L579 271z"/>
<path style="fill:#018181; stroke:none;" d="M57 272L58 273L57 272M556 273L557 274L556 273M764 273L765 274L764 273z"/>
<path style="fill:#010101; stroke:none;" d="M174 274L175 275L174 274z"/>
<path style="fill:#018181; stroke:none;" d="M624 274L625 275L624 274M503 275L504 276L503 275z"/>
<path style="fill:#0157ab; stroke:none;" d="M749 275L750 276L749 275z"/>
<path style="fill:#018181; stroke:none;" d="M174 276L175 277L174 276M765 276L766 277L765 276M46 277L47 278L46 277M39 278L40 279L39 278z"/>
<path style="fill:#0157ab; stroke:none;" d="M14 279L15 280L14 279z"/>
<path style="fill:#010101; stroke:none;" d="M23 280L24 281L23 280z"/>
<path style="fill:#018181; stroke:none;" d="M45 280L46 281L45 280z"/>
<path style="fill:#0157ab; stroke:none;" d="M735 280L736 281L735 280z"/>
<path style="fill:#018181; stroke:none;" d="M757 280L758 281L757 280M471 281L472 282L471 281z"/>
<path style="fill:#0157ab; stroke:none;" d="M29 282L30 283L29 282z"/>
<path style="fill:#018181; stroke:none;" d="M182 282L183 283L182 282M22 283L23 284L22 283z"/>
<path style="fill:#010101; stroke:none;" d="M470 283L471 284L470 283M184 284L185 285L184 284z"/>
<path style="fill:#018181; stroke:none;" d="M12 286L13 287L12 286M478 287L479 288L478 287z"/>
<path style="fill:#0157ab; stroke:none;" d="M563 289L564 290L563 289z"/>
<path style="fill:#018181; stroke:none;" d="M42 290L43 291L42 290M624.333 290.667L624.667 291.333L624.333 290.667z"/>
<path style="fill:#0157ab; stroke:none;" d="M738 290L739 291L738 290z"/>
<path style="fill:#010101; stroke:none;" d="M769 290L770 291L769 290M177 291L178 292L177 291z"/>
<path style="fill:#018181; stroke:none;" d="M475 291L476 292L475 291M489 291L490 292L489 291z"/>
<path style="fill:#010101; stroke:none;" d="M745 292L746 293L745 292z"/>
<path style="fill:#018181; stroke:none;" d="M19 293L20 294L19 293z"/>
<path style="fill:#010101; stroke:none;" d="M183 294L184 295L183 294M305.333 294.667L305.667 295.333L305.333 294.667z"/>
<path style="fill:#018181; stroke:none;" d="M471 294L472 295L471 294z"/>
<path style="fill:#010101; stroke:none;" d="M770 294L771 295L770 294M34 295L35 296L34 295M469 295L470 296L469 295z"/>
<path style="fill:#018181; stroke:none;" d="M25 296L26 297L25 296M305 296L306 297L305 296M166 297L167 298L166 297z"/>
<path style="fill:#0157ab; stroke:none;" d="M305.333 297.667L305.667 298.333L305.333 297.667z"/>
<path style="fill:#018181; stroke:none;" d="M489 297L490 298L489 297z"/>
<path style="fill:#010101; stroke:none;" d="M740 297L741 298L740 297z"/>
<path style="fill:#0157ab; stroke:none;" d="M762 297L763 298L762 297z"/>
<path style="fill:#018181; stroke:none;" d="M187 298L188 299L187 298z"/>
<path style="fill:#010101; stroke:none;" d="M48 299L49 300L48 299z"/>
<path style="fill:#018181; stroke:none;" d="M305 299L306 300L305 299M427 299L428 300L427 299z"/>
<path style="fill:#010101; stroke:none;" d="M437 299L438 300L437 299z"/>
<path style="fill:#018181; stroke:none;" d="M563 299L564 300L563 299z"/>
<path style="fill:#0157ab; stroke:none;" d="M747 299L748 300L747 299z"/>
<path style="fill:#010101; stroke:none;" d="M199 300L200 301L199 300M296 300L297 301L296 300z"/>
<path style="fill:#018181; stroke:none;" d="M756 300L757 301L756 300M305.333 301.667L305.667 302.333L305.333 301.667z"/>
<path style="fill:#010101; stroke:none;" d="M200 302L201 303L200 302z"/>
<path style="fill:#018181; stroke:none;" d="M463 302L464 303L463 302z"/>
<path style="fill:#010101; stroke:none;" d="M562 303L563 304L562 303z"/>
<path style="fill:#018181; stroke:none;" d="M191 304L192 305L191 304M757 304L758 305L757 304M7 306L8 307L7 306M46 306L47 307L46 306z"/>
<path style="fill:#010101; stroke:none;" d="M192 306L193 307L192 306z"/>
<path style="fill:#018181; stroke:none;" d="M561 306L562 307L561 306M491 307L492 308L491 307M773 307L774 308L773 307M322 308L323 309L322 308z"/>
<path style="fill:#010101; stroke:none;" d="M323 308L324 309L323 308z"/>
<path style="fill:#018181; stroke:none;" d="M426.667 308.333L427.333 308.667L426.667 308.333z"/>
<path style="fill:#010101; stroke:none;" d="M560 308L561 309L560 308M765 309L766 310L765 309z"/>
<path style="fill:#018181; stroke:none;" d="M502 310L503 311L502 310z"/>
<path style="fill:#0157ab; stroke:none;" d="M493 312L494 313L493 312M759 312L760 313L759 312z"/>
<path style="fill:#010101; stroke:none;" d="M14 313L15 314L14 313z"/>
<path style="fill:#018181; stroke:none;" d="M557 313L558 314L557 313M587 313L588 314L587 313M295 314L296 315L295 314z"/>
<path style="fill:#010101; stroke:none;" d="M494 314L495 315L494 314z"/>
<path style="fill:#018181; stroke:none;" d="M204 316L205 317L204 316M20 317L21 318L20 317z"/>
<path style="fill:#010101; stroke:none;" d="M484 317L485 318L484 317z"/>
<path style="fill:#018181; stroke:none;" d="M767 318L768 319L767 318M475 319L476 320L475 319M43 320L44 321L43 320z"/>
<path style="fill:#0157ab; stroke:none;" d="M252 320L253 321L252 320z"/>
<path style="fill:#018181; stroke:none;" d="M4 321L5 322L4 321z"/>
<path style="fill:#0157ab; stroke:none;" d="M253 321L254 322L253 321z"/>
<path style="fill:#018181; stroke:none;" d="M515 323L516 324L515 323M244 324L245 325L244 324M290 324L291 325L290 324z"/>
<path style="fill:#0157ab; stroke:none;" d="M517 324L518 325L517 324z"/>
<path style="fill:#018181; stroke:none;" d="M204 325L205 326L204 325z"/>
<path style="fill:#0157ab; stroke:none;" d="M540 325L541 326L540 325z"/>
<path style="fill:#018181; stroke:none;" d="M271 326L272 327L271 326M536 326L537 327L536 326M762 326L763 327L762 326z"/>
<path style="fill:#0157ab; stroke:none;" d="M18 327L19 328L18 327z"/>
<path style="fill:#010101; stroke:none;" d="M777 327L778 328L777 327M769 329L770 330L769 329z"/>
<path style="fill:#0157ab; stroke:none;" d="M203 330L204 331L203 330M587 330L588 331L587 330M280 332L281 333L280 332z"/>
<path style="fill:#018181; stroke:none;" d="M778 333L779 334L778 333M219 335L219 336L222 336L219 335M254 335L254 336L257 336L254 335z"/>
<path style="fill:#010101; stroke:none;" d="M267 335L268 336L267 335z"/>
<path style="fill:#0157ab; stroke:none;" d="M309 335L310 336L309 335z"/>
<path style="fill:#018181; stroke:none;" d="M359 335L359 336L362 336L359 335M370 335L371 336L370 335z"/>
<path style="fill:#010101; stroke:none;" d="M764 338L765 339L764 338z"/>
<path style="fill:#0157ab; stroke:none;" d="M755 340L756 341L755 340z"/>
<path style="fill:#018181; stroke:none;" d="M145 343L146 344L145 343z"/>
<path style="fill:#0157ab; stroke:none;" d="M152 345L153 346L152 345z"/>
<path style="fill:#018181; stroke:none;" d="M143 348L144 349L143 348z"/>
<path style="fill:#ffffff; stroke:none;" d="M157 355C164.234 358.477 172.239 355.563 179 352C173.358 349.633 160.213 349.174 157 355z"/>
<path style="fill:#018181; stroke:none;" d="M173 354L174 355L173 354z"/>
<path style="fill:#0157ab; stroke:none;" d="M170 355L171 356L170 355z"/>
<path style="fill:#018181; stroke:none;" d="M715 357L715 358L730 358L715 357z"/>
<path style="fill:#0157ab; stroke:none;" d="M184 358L185 359L184 358z"/>
<path style="fill:#018181; stroke:none;" d="M194 358L195 359L194 358M144 361L145 362L144 361M189 362L190 363L189 362M145 364L146 365L145 364M187 364L188 365L187 364z"/>
</svg>
